<svg preserveAspectRatio="none" width="100%" height="100%" overflow="visible" style="display: block;" viewBox="0 0 16.6333 20.0049" fill="none" xmlns="http://www.w3.org/2000/svg">
<path id="Vector" d="M16.5536 4.91827L12.8053 2.65431L8.37755 0L0.98394 4.44499L0 5.07441V8.54843V15.1256L5.76308 18.5899L8.38223 20.0049C9.83003 19.1754 11.142 18.4826 12.5335 17.6482L16.6333 15.1842L16.5536 4.91827ZM12.065 16.726H12.0322L12.0041 11.4418C12.4489 11.2853 12.8251 10.9679 13.0645 10.5473C13.3039 10.1266 13.3905 9.63058 13.3088 9.1491C13.2271 8.66761 12.9823 8.23257 12.6189 7.9229C12.2556 7.61323 11.7977 7.44942 11.3283 7.4612C10.8589 7.47298 10.4091 7.65956 10.0605 7.9871C9.71186 8.31464 9.48752 8.76144 9.42815 9.24647C9.36877 9.7315 9.47829 10.2226 9.73684 10.6308C9.99539 11.0389 10.3859 11.3371 10.8374 11.4711L10.7765 17.453L8.37755 18.8241L6.24568 17.6628L4.68543 16.726L0.997997 14.506V10.344L4.98998 12.7348C4.92545 13.2047 5.01995 13.6833 5.25726 14.0886C5.49458 14.4939 5.85992 14.8005 6.29062 14.956C6.72132 15.1114 7.19053 15.1059 7.61776 14.9404C8.04499 14.7749 8.40362 14.4598 8.63212 14.0491C8.86062 13.6383 8.94475 13.1576 8.87008 12.6894C8.79541 12.2211 8.5666 11.7945 8.22289 11.4827C7.87918 11.1709 7.442 10.9934 6.98634 10.9806C6.53068 10.9678 6.08494 11.1205 5.72559 11.4125L0.997997 8.6948V5.65504L1.49465 5.33789L4.68543 3.41547L8.37286 1.19541L11.5355 3.09832L7.49669 5.65504C7.15653 5.32541 6.71491 5.13247 6.25073 5.11067C5.78655 5.08888 5.33005 5.23965 4.96278 5.53605C4.59552 5.83246 4.34141 6.25518 4.24586 6.72871C4.1503 7.20224 4.21953 7.69572 4.44118 8.12099C4.66282 8.54627 5.02243 8.87563 5.45578 9.05023C5.88912 9.22484 6.36796 9.23331 6.80676 9.07414C7.24555 8.91497 7.6157 8.59853 7.8511 8.18135C8.08649 7.76416 8.17178 7.27342 8.09174 6.79678L12.8146 3.86924L15.5603 5.52818L15.6306 14.5938L12.065 16.726ZM11.3762 10.5001C11.1909 10.5001 11.0097 10.4429 10.8556 10.3357C10.7015 10.2284 10.5814 10.076 10.5105 9.89771C10.4395 9.7194 10.421 9.52319 10.4571 9.3339C10.4933 9.1446 10.5825 8.97072 10.7136 8.83425C10.8447 8.69777 11.0116 8.60483 11.1934 8.56718C11.3752 8.52952 11.5636 8.54885 11.7348 8.62271C11.9061 8.69657 12.0524 8.82164 12.1554 8.98212C12.2583 9.1426 12.3133 9.33127 12.3133 9.52427C12.3133 9.78309 12.2146 10.0313 12.0388 10.2143C11.8631 10.3973 11.6248 10.5001 11.3762 10.5001ZM5.99266 13.0276C5.99266 12.8346 6.04762 12.6459 6.15059 12.4854C6.25356 12.3249 6.39991 12.1999 6.57114 12.126C6.74237 12.0521 6.93079 12.0328 7.11257 12.0705C7.29434 12.1081 7.46132 12.2011 7.59237 12.3375C7.72342 12.474 7.81267 12.6479 7.84883 12.8372C7.88499 13.0265 7.86643 13.2227 7.7955 13.401C7.72458 13.5793 7.60447 13.7317 7.45037 13.839C7.29626 13.9462 7.11509 14.0034 6.92975 14.0034C6.68122 14.0034 6.44287 13.9006 6.26713 13.7176C6.09139 13.5346 5.99266 13.2864 5.99266 13.0276ZM7.09374 7.17248C7.09374 7.36549 7.03878 7.55416 6.93581 7.71463C6.83284 7.87511 6.68649 8.00019 6.51526 8.07405C6.34403 8.14791 6.15561 8.16723 5.97384 8.12958C5.79206 8.09193 5.62509 7.99898 5.49403 7.86251C5.36298 7.72604 5.27373 7.55216 5.23757 7.36286C5.20142 7.17356 5.21997 6.97735 5.2909 6.79904C5.36183 6.62073 5.48193 6.46832 5.63604 6.36109C5.79014 6.25387 5.97132 6.19663 6.15665 6.19663C6.40118 6.19655 6.63605 6.29601 6.81113 6.47377C6.98621 6.65154 7.08763 6.89353 7.09374 7.14808V7.17248Z" fill="var(--fill-0, #CE1126)"/>
</svg>
