<svg preserveAspectRatio="none" width="100%" height="100%" overflow="visible" style="display: block;" viewBox="0 0 49.4407 11.2623" fill="none" xmlns="http://www.w3.org/2000/svg">
<path id="RYDERSHARE" d="M6.3675 8.11905C6.3675 10.022 5.07432 11.2613 2.90028 11.2613C1.93303 11.2813 0.981485 11.0047 0.163993 10.466L0 9.03147C0.843857 9.71515 1.88266 10.086 2.95182 10.0854C4.19815 10.0854 5.07432 9.34374 5.07432 8.23616C5.07432 7.12857 4.46053 6.52354 3.08301 6.02586C1.20884 5.36716 0.295184 4.42059 0.295184 2.88363C0.295184 1.44913 1.32598 0.0487921 3.46253 0.0487921C4.25 0.0334897 5.02584 0.248151 5.70217 0.668456L5.4351 1.8102C4.83778 1.40473 4.14266 1.18317 3.42974 1.17102C2.2209 1.17102 1.55557 1.94682 1.55557 2.77629C1.55557 3.60576 2.13656 4.24006 3.36414 4.67919C5.19146 5.37204 6.3675 6.24055 6.3675 8.11905ZM18.0811 11.1783H16.7036V6.25518H10.9452V11.1783H9.58639V0.156136H10.9452V5.03537H16.7036V0.156136H18.0811V11.1783ZM30.3569 11.1783H28.9747L27.7987 8.20688H23.5021L22.3401 11.1783H20.9954L25.4138 0H25.9104L30.3569 11.1783ZM27.3395 7.06514L26.1728 4.01561C26.0088 3.58136 25.8261 3.01537 25.6762 2.49329H25.6434C25.4995 3.01053 25.3274 3.5188 25.128 4.01561L23.966 7.05538L27.3395 7.06514ZM41.1709 11.1783H39.4701L36.0544 6.23567H34.6113V11.1783H33.2666V0.156136H36.3215C37.8817 0.156136 39.4747 1.21005 39.4747 3.1959C39.4844 3.82464 39.2971 4.43954 38.9412 4.94752C38.5852 5.45551 38.0801 5.82891 37.5022 6.01122L41.1709 11.1783ZM38.0644 3.23006C38.0644 2.03952 37.1273 1.38082 36.0731 1.38082H34.5972V5.05977H36.0919C37.1508 5.06465 38.0644 4.44011 38.0644 3.23006ZM49.4079 11.1783H43.2184V0.156136H48.8409V1.38082H44.5959V5.02562H48.1287V6.25031H44.5959V9.94877H49.4407L49.4079 11.1783Z" fill="var(--fill-0, #99999A)"/>
</svg>
