<svg preserveAspectRatio="none" width="100%" height="100%" overflow="visible" style="display: block;" viewBox="0 0 49.5016 11.0271" fill="none" xmlns="http://www.w3.org/2000/svg">
<path id="RYDER" d="M7.89964 11.0222H6.2082L2.78783 6.08441H1.34472V11.0222H0V0H3.0549C4.61515 0 6.2082 1.05392 6.2082 3.03977C6.21784 3.66851 6.03052 4.28341 5.6746 4.79139C5.31869 5.29937 4.81354 5.67278 4.23563 5.85509L7.89964 11.0222ZM4.81194 3.07392C4.81194 1.88339 3.87485 1.22469 2.82063 1.22469H1.34472V4.90364H2.83937C3.88422 4.90851 4.81194 4.28397 4.81194 3.07392ZM17.7953 0L13.733 5.94291V11.0222H12.393V5.94291L8.35881 0H9.85346L12.0603 3.23006C12.393 3.71798 12.7912 4.33764 13.1051 4.85484H13.1379C13.4519 4.33764 13.8689 3.69846 14.1828 3.23006L16.3896 0H17.7953ZM29.5323 5.51354C29.5323 9.03635 26.81 11.0271 23.7411 11.0271H20.7283V0H23.7458C26.8147 0 29.5369 1.98585 29.5369 5.51354H29.5323ZM28.1266 5.51354C28.1266 2.64455 26.0838 1.21005 23.4974 1.21005H22.0918V9.83167H23.4974C26.1025 9.83167 28.1407 8.39717 28.1407 5.52818L28.1266 5.51354ZM38.9547 11.0076H32.7652V0H38.3877V1.22469H34.1427V4.86948H37.6755V6.09417H34.1427V9.79263H38.9875L38.9547 11.0076ZM49.5016 11.0076H47.8101L44.3944 6.06489H42.9513V11.0222H41.6066V0H44.6615C46.2218 0 47.8148 1.05392 47.8148 3.03977C47.8244 3.66851 47.6371 4.28341 47.2812 4.79139C46.9253 5.29937 46.4201 5.67278 45.8422 5.85509L49.5016 11.0076ZM46.4139 3.05928C46.4139 1.86875 45.4768 1.21005 44.4226 1.21005H42.9466V4.889H44.4413C45.5002 4.90851 46.4279 4.28397 46.4279 3.07392L46.4139 3.05928Z" fill="var(--fill-0, #CD2028)"/>
</svg>
